<?xml version="1.0" encoding="utf-8"?>
<!-- Generator: Adobe Illustrator 22.0.1, SVG Export Plug-In . SVG Version: 6.00 Build 0)  -->
<svg version="1.1" id="Layer_1" xmlns="http://www.w3.org/2000/svg" xmlns:xlink="http://www.w3.org/1999/xlink" x="0px" y="0px"
	 viewBox="0 0 24 24" style="enable-background:new 0 0 24 24;" xml:space="preserve">
<style type="text/css">
	.st0{fill:none;}
	.st1{fill:#FFB000;}
</style>
<path d="M19,24H5c-2.8,0-5-2.3-5-5V5c0-2.8,2.3-5,5-5h14c2.8,0,5,2.3,5,5v14C24,21.7,21.7,24,19,24z"/>
<path class="st0" d="M0,0h24v24H0V0z"/>
<path class="st1" d="M12.9,15.1l-2.5-2.5l0,0c1.7-1.9,3-4.2,3.7-6.5H17V4h-7V2H8v2H1v2h11.2c-0.7,1.9-1.7,3.8-3.2,5.4
	c-0.9-1-1.7-2.2-2.3-3.4h-2c0.7,1.6,1.7,3.2,3,4.6l-5.1,5L4,19l5-5l3.1,3.1C12.1,17.1,12.9,15.1,12.9,15.1z M18.5,10h-2L12,22h2
	l1.1-3h4.7l1.1,3h2L18.5,10z M15.9,17l1.6-4.3l1.6,4.3C19.1,17,15.9,17,15.9,17z"/>
</svg>
